<?xml version="1.0" encoding="UTF-8"?>
<svg id="Layer_1" data-name="Layer 1" xmlns="http://www.w3.org/2000/svg" viewBox="0 0 276 142">
  <defs>
    <style>
      .cls-1 {
        fill: #fff;
      }

      .cls-2 {
        fill: none;
        stroke: #fff;
        stroke-dasharray: 0 0 19.54 19.54;
        stroke-miterlimit: 10;
        stroke-width: 5px;
      }
    </style>
  </defs>
  <g>
    <path class="cls-1" d="m60.08,78.79l-.92-2.43h-7.86l-.92,2.48c-.36.97-.67,1.62-.92,1.96-.25.34-.67.51-1.25.51-.49,0-.93-.18-1.31-.54s-.57-.77-.57-1.23c0-.26.04-.54.13-.82s.23-.67.44-1.17l4.94-12.55c.14-.36.31-.79.51-1.3.2-.5.41-.92.63-1.26.22-.33.52-.6.88-.81.36-.21.81-.31,1.35-.31s1,.1,1.36.31c.36.21.66.47.88.8.22.33.41.67.57,1.05.15.37.35.87.59,1.5l5.05,12.47c.4.95.59,1.64.59,2.07s-.19.86-.56,1.23c-.37.37-.82.56-1.35.56-.31,0-.57-.06-.79-.16-.22-.11-.4-.26-.55-.45s-.31-.48-.48-.87c-.17-.39-.32-.74-.44-1.04Zm-7.75-5.37h5.77l-2.91-7.98-2.86,7.98Z"/>
    <path class="cls-1" d="m76.74,79.25v-.36c-.48.55-.96,1-1.43,1.35-.47.35-.98.61-1.53.79-.55.18-1.15.27-1.8.27-.86,0-1.66-.18-2.39-.55-.73-.36-1.37-.89-1.91-1.56s-.94-1.47-1.22-2.39c-.28-.91-.42-1.9-.42-2.97,0-2.25.55-4,1.65-5.26s2.54-1.89,4.34-1.89c1.04,0,1.91.18,2.62.53.71.36,1.41.9,2.08,1.64v-5.31c0-.74.15-1.3.44-1.67.29-.38.71-.57,1.26-.57s.96.17,1.26.52.44.86.44,1.54v15.87c0,.69-.16,1.2-.47,1.54s-.73.51-1.23.51-.9-.18-1.22-.53c-.32-.36-.48-.86-.48-1.52Zm-7.08-5.29c0,.98.15,1.81.46,2.49.3.69.72,1.2,1.25,1.55s1.1.52,1.73.52,1.21-.17,1.73-.49c.52-.33.94-.83,1.25-1.52.31-.68.47-1.53.47-2.55,0-.96-.16-1.78-.47-2.47-.31-.69-.73-1.22-1.27-1.58-.53-.36-1.11-.55-1.75-.55s-1.25.19-1.77.56c-.52.37-.92.91-1.21,1.61-.29.7-.43,1.51-.43,2.43Z"/>
    <path class="cls-1" d="m93.62,79.25v-.36c-.48.55-.96,1-1.43,1.35-.47.35-.98.61-1.53.79-.55.18-1.15.27-1.8.27-.86,0-1.66-.18-2.39-.55-.73-.36-1.37-.89-1.91-1.56s-.94-1.47-1.22-2.39c-.28-.91-.42-1.9-.42-2.97,0-2.25.55-4,1.65-5.26s2.54-1.89,4.34-1.89c1.04,0,1.91.18,2.62.53.71.36,1.41.9,2.08,1.64v-5.31c0-.74.15-1.3.44-1.67.29-.38.71-.57,1.26-.57s.96.17,1.26.52.44.86.44,1.54v15.87c0,.69-.16,1.2-.47,1.54s-.73.51-1.23.51-.9-.18-1.22-.53c-.32-.36-.48-.86-.48-1.52Zm-7.08-5.29c0,.98.15,1.81.46,2.49.3.69.72,1.2,1.25,1.55s1.1.52,1.73.52,1.21-.17,1.73-.49c.52-.33.94-.83,1.25-1.52.31-.68.47-1.53.47-2.55,0-.96-.16-1.78-.47-2.47-.31-.69-.73-1.22-1.27-1.58-.53-.36-1.11-.55-1.75-.55s-1.25.19-1.77.56c-.52.37-.92.91-1.21,1.61-.29.7-.43,1.51-.43,2.43Z"/>
    <path class="cls-1" d="m109.77,81.3c-.54,0-1.02-.18-1.41-.53s-.59-.84-.59-1.48c0-.54.19-1,.57-1.38s.84-.58,1.4-.58,1.03.19,1.42.57c.39.38.59.85.59,1.39,0,.62-.2,1.11-.59,1.47-.39.36-.85.53-1.38.53Z"/>
    <path class="cls-1" d="m130.77,75.17c0,1.17-.3,2.22-.9,3.15s-1.48,1.66-2.64,2.19-2.54.79-4.13.79c-1.91,0-3.48-.36-4.72-1.08-.88-.52-1.59-1.21-2.14-2.08-.55-.87-.82-1.71-.82-2.52,0-.47.16-.88.49-1.22.33-.34.75-.51,1.26-.51.41,0,.76.13,1.05.4s.53.65.73,1.17c.25.62.51,1.13.8,1.54s.69.75,1.21,1.02,1.2.4,2.04.4c1.16,0,2.1-.27,2.83-.81.72-.54,1.09-1.21,1.09-2.02,0-.64-.2-1.16-.59-1.56-.39-.4-.9-.71-1.52-.92-.62-.21-1.45-.44-2.48-.67-1.39-.33-2.55-.71-3.49-1.14-.94-.44-1.68-1.03-2.23-1.78-.55-.75-.82-1.69-.82-2.8s.29-2.01.87-2.83,1.42-1.46,2.52-1.91c1.1-.44,2.39-.67,3.88-.67,1.19,0,2.21.15,3.08.44s1.58.69,2.16,1.17c.57.49.99,1,1.25,1.54s.4,1.06.4,1.57c0,.47-.17.89-.49,1.26-.33.37-.74.56-1.23.56-.45,0-.79-.11-1.02-.34-.23-.22-.49-.59-.76-1.1-.35-.73-.77-1.3-1.27-1.71-.49-.41-1.28-.61-2.37-.61-1.01,0-1.83.22-2.45.67-.62.44-.93.98-.93,1.6,0,.39.11.72.32,1s.5.52.87.73.74.36,1.12.47,1,.28,1.87.5c1.09.25,2.08.54,2.96.84.88.31,1.63.68,2.25,1.12.62.44,1.1,1,1.45,1.67.35.67.52,1.5.52,2.47Z"/>
    <path class="cls-1" d="m146.64,64.88h-4.27v14.04c0,.81-.18,1.41-.54,1.8-.36.39-.83.59-1.4.59s-1.05-.2-1.42-.59-.55-.99-.55-1.79v-14.04h-4.27c-.67,0-1.16-.15-1.49-.44-.33-.29-.49-.68-.49-1.17s.17-.9.51-1.19c.34-.29.83-.44,1.47-.44h12.45c.68,0,1.18.15,1.51.45.33.3.49.69.49,1.17s-.17.87-.5,1.17c-.33.29-.83.44-1.5.44Z"/>
    <path class="cls-1" d="m154.8,63.69v14.07h7.94c.63,0,1.12.15,1.46.46s.51.69.51,1.16-.17.86-.5,1.15-.82.44-1.46.44h-9.45c-.85,0-1.47-.19-1.84-.57-.37-.38-.56-.99-.56-1.83v-14.88c0-.79.18-1.38.53-1.78.36-.4.82-.59,1.4-.59s1.07.2,1.43.59c.36.39.55.99.55,1.79Z"/>
    <path class="cls-1" d="m185.57,64.67h-7.71v4.94h6.45c.6,0,1.04.13,1.34.4s.44.63.44,1.07-.15.8-.45,1.07-.74.4-1.33.4h-6.45v6.37c0,.81-.18,1.41-.55,1.8-.36.39-.83.59-1.4.59s-1.05-.2-1.42-.59-.55-.99-.55-1.79v-14.87c0-.56.08-1.02.25-1.38.17-.36.43-.61.78-.78.36-.16.81-.24,1.36-.24h9.23c.62,0,1.09.14,1.39.42.3.28.46.64.46,1.09s-.15.82-.46,1.1c-.3.28-.77.42-1.39.42Z"/>
    <path class="cls-1" d="m191.54,65c-.5,0-.93-.15-1.29-.46-.36-.31-.53-.74-.53-1.31,0-.51.18-.93.55-1.26.36-.33.79-.49,1.27-.49s.88.15,1.24.45.54.73.54,1.31-.18.99-.53,1.3-.77.47-1.25.47Zm1.78,3.72v10.4c0,.72-.17,1.27-.51,1.63s-.78.55-1.31.55-.96-.19-1.29-.57c-.33-.38-.49-.92-.49-1.62v-10.3c0-.71.16-1.25.49-1.61.33-.36.76-.54,1.29-.54s.96.18,1.31.54.51.86.51,1.5Z"/>
    <path class="cls-1" d="m197.04,79.11v-15.61c0-.72.16-1.27.48-1.63s.75-.55,1.3-.55.98.18,1.32.55.5.91.5,1.64v15.61c0,.73-.17,1.28-.51,1.64-.34.36-.78.55-1.31.55s-.96-.19-1.29-.57c-.33-.38-.49-.92-.49-1.62Z"/>
    <path class="cls-1" d="m214.4,74.87h-7.04c0,.82.17,1.54.49,2.16.32.62.75,1.09,1.28,1.41s1.12.47,1.76.47c.43,0,.82-.05,1.18-.15.36-.1.7-.26,1.03-.47s.64-.45.92-.69.65-.58,1.09-1c.18-.16.45-.24.79-.24.37,0,.67.1.9.3s.34.49.34.86c0,.33-.13.71-.38,1.14-.25.43-.64.85-1.15,1.25-.51.4-1.16.73-1.94,1-.78.26-1.67.4-2.68.4-2.31,0-4.11-.66-5.39-1.98s-1.92-3.11-1.92-5.37c0-1.06.16-2.05.47-2.96.32-.91.78-1.69,1.38-2.34s1.35-1.15,2.24-1.5,1.87-.52,2.95-.52c1.41,0,2.61.3,3.62.89,1.01.59,1.76,1.36,2.26,2.3s.75,1.9.75,2.87c0,.91-.26,1.49-.78,1.76s-1.25.4-2.19.4Zm-7.04-2.04h6.53c-.09-1.23-.42-2.15-1-2.76-.58-.61-1.33-.92-2.27-.92s-1.63.31-2.21.93c-.58.62-.93,1.54-1.05,2.75Z"/>
    <path class="cls-1" d="m231.99,76.6c0,.99-.24,1.84-.73,2.55-.48.71-1.2,1.24-2.14,1.61-.95.36-2.09.55-3.45.55s-2.4-.2-3.32-.59-1.6-.89-2.04-1.48c-.44-.59-.66-1.19-.66-1.79,0-.4.14-.73.42-1.02s.64-.42,1.07-.42c.38,0,.67.09.87.28s.4.44.58.78c.37.64.81,1.12,1.32,1.44.51.32,1.22.47,2.1.47.72,0,1.31-.16,1.77-.48.46-.32.69-.69.69-1.1,0-.63-.24-1.09-.72-1.38s-1.27-.57-2.37-.83c-1.24-.31-2.25-.63-3.03-.97-.78-.34-1.4-.78-1.87-1.34s-.7-1.23-.7-2.04c0-.72.22-1.4.65-2.04s1.07-1.15,1.9-1.54c.84-.38,1.85-.57,3.04-.57.93,0,1.77.1,2.51.29.74.19,1.36.45,1.86.78s.87.69,1.13,1.08.39.78.39,1.16c0,.41-.14.75-.42,1.02-.28.26-.67.4-1.18.4-.37,0-.68-.11-.94-.32-.26-.21-.56-.53-.89-.95-.27-.35-.59-.63-.96-.84s-.87-.32-1.5-.32-1.19.14-1.62.42c-.43.28-.65.62-.65,1.03,0,.38.16.69.47.93.32.24.74.44,1.28.6s1.27.35,2.21.58c1.12.27,2.03.6,2.74.98.71.38,1.24.82,1.61,1.34.36.51.55,1.1.55,1.76Z"/>
  </g>
  <rect class="cls-2" x="2.5" y="2.5" width="271" height="137" rx="42.81" ry="42.81"/>
</svg>